<svg xmlns="http://www.w3.org/2000/svg" viewBox="0 0 64 64">
  <defs>
    <linearGradient id="favGradient" x1="12" y1="18" x2="52" y2="48" gradientUnits="userSpaceOnUse">
      <stop offset="0" stop-color="#2563EB"/>
      <stop offset="1" stop-color="#14B8A6"/>
    </linearGradient>
  </defs>
  <rect width="64" height="64" rx="14" fill="#F8FAFC"/>
  <path d="M32 16c0-2 1.6-3.6 3.6-3.6 6.3 0 11.8 2.1 16 6a2.8 2.8 0 0 1 .9 2V40c0 1.8-1.8 3.1-3.5 2.4-5.2-2.2-10.8-2.5-16.1-.8-2 .6-3.9-.8-3.9-2.9V16Z" fill="url(#favGradient)"/>
  <path d="M32 16c0-2-1.6-3.6-3.6-3.6-6.3 0-11.8 2.1-16 6a2.8 2.8 0 0 0-.9 2V40c0 1.8 1.8 3.1 3.5 2.4 5.2-2.2 10.8-2.5 16.1-.8 2 .6 3.9-.8 3.9-2.9V16Z" fill="url(#favGradient)" opacity="0.9"/>
  <path d="m32 10.2 1.3 3 3 1.3-3 1.3-1.3 3-1.3-3-3-1.3 3-1.3Z" fill="#0F766E"/>
</svg>
