<svg xmlns="http://www.w3.org/2000/svg" viewBox="0 0 500 500"><g id="freepik--background-simple--inject-16"><path d="M470.56,253.85c-4.08,41.61-22.33,90.42-60.39,113.81-57.5,35.33-51.5,86.63-164.69,112.67a239.66,239.66,0,0,1-50.3,6.3,198.45,198.45,0,0,1-24.78-1.18c-72.47-8-122.17-55.7-141.31-114.56-25.19-77.42,20.56-130.12,51-162s51-128.66,162.11-155.11a231.79,231.79,0,0,1,51.7-6.5c39.72-.33,83.3,11.06,113.84,36.77q3.45,2.89,6.71,6C457,130.67,476.13,197.12,470.56,253.85Z" style="fill:#8F4EFF"></path><path d="M470.56,253.85c-4.08,41.61-22.33,90.42-60.39,113.81-57.5,35.33-51.5,86.63-164.69,112.67a239.66,239.66,0,0,1-50.3,6.3,198.45,198.45,0,0,1-24.78-1.18c-72.47-8-122.17-55.7-141.31-114.56-25.19-77.42,20.56-130.12,51-162s51-128.66,162.11-155.11a231.79,231.79,0,0,1,51.7-6.5c39.72-.33,83.3,11.06,113.84,36.77q3.45,2.89,6.71,6C457,130.67,476.13,197.12,470.56,253.85Z" style="fill:#fff;opacity:0.7000000000000001"></path></g><g id="freepik--Table--inject-16"><line x1="14.14" y1="429.37" x2="494.55" y2="429.37" style="fill:none;stroke:#263238;stroke-miterlimit:10"></line></g><g id="freepik--flask-3--inject-16"><path d="M482,404.39,401.36,243.33v-61.5H348.94v61.5l-80.6,161.06a17.89,17.89,0,0,0,16.43,25H465.58A17.89,17.89,0,0,0,482,404.39Z" style="fill:#fff;stroke:#263238;stroke-linecap:round;stroke-linejoin:round"></path><line x1="317.03" y1="324.7" x2="313.04" y2="332.79" style="fill:none;stroke:#263238;stroke-miterlimit:10"></line><polyline points="355.99 200.8 355.99 245.64 322.03 314.55" style="fill:none;stroke:#263238;stroke-miterlimit:10"></polyline><rect x="345.08" y="176.87" width="60.34" height="9.14" rx="4.19" style="fill:#fff;stroke:#263238;stroke-linecap:round;stroke-linejoin:round"></rect><path d="M444.87,344H305.49L276,400.88c-4.73,11.37,3.31,24.05,15.26,24.05H459.12c11.95,0,20-12.68,15.26-24.05Z" style="fill:#8F4EFF;stroke:#263238;stroke-linecap:round;stroke-linejoin:round"></path><path d="M282.83,409.11c-2.73-5.45-1.66-14.18.21-21.86L276,400.88c-4.73,11.37,3.31,24.05,15.26,24.05H314C293.2,422.39,288.37,420.18,282.83,409.11Z" style="fill:#263238;stroke:#263238;stroke-linecap:round;stroke-linejoin:round"></path><path d="M450.07,424.93h9.05c11.95,0,20-12.68,15.26-24.05l-10.55-20.35a152.23,152.23,0,0,1,3,19C467.5,408.7,463.32,420.17,450.07,424.93Z" style="fill:#263238;stroke:#263238;stroke-linecap:round;stroke-linejoin:round"></path><path d="M373.47,355c27.85-1.16,57.45-7.8,70.27-11H305.49l-.19.36C313.76,347.26,342.53,356.25,373.47,355Z" style="fill:#263238;stroke:#263238;stroke-linecap:round;stroke-linejoin:round"></path><path d="M411.56,348.37c0,1.54-18.6,5.87-40.54,5.87s-38.89-4.33-38.89-5.87,17.78-2.77,39.72-2.77S411.56,346.84,411.56,348.37Z" style="fill:#8F4EFF;stroke:#263238;stroke-linecap:round;stroke-linejoin:round"></path><line x1="397.24" y1="370.08" x2="373.28" y2="370.08" style="fill:none;stroke:#263238;stroke-linecap:round;stroke-linejoin:round"></line><line x1="397.24" y1="340.11" x2="373.28" y2="340.11" style="fill:none;stroke:#263238;stroke-linecap:round;stroke-linejoin:round"></line><line x1="397.24" y1="310.14" x2="373.28" y2="310.14" style="fill:none;stroke:#263238;stroke-linecap:round;stroke-linejoin:round"></line><ellipse cx="443.46" cy="400.16" rx="14.21" ry="14.84" style="fill:#fff;stroke:#263238;stroke-miterlimit:10"></ellipse><path d="M436.2,378.66a4.42,4.42,0,1,1-4.42-4.42A4.42,4.42,0,0,1,436.2,378.66Z" style="fill:#fff;stroke:#263238;stroke-miterlimit:10"></path><polyline points="397.24 280.18 373.28 280.18 373.28 400.05 397.24 400.05" style="fill:none;stroke:#263238;stroke-linecap:round;stroke-linejoin:round"></polyline></g><g id="freepik--flask-1--inject-16"><path d="M124.52,275.73V124.59h-55V275.73a79.32,79.32,0,1,0,55,0Z" style="fill:#fff;stroke:#263238;stroke-miterlimit:10"></path><path d="M117.7,157V279.51s12.64,2.53,22.74,10.74" style="fill:none;stroke:#263238;stroke-miterlimit:10"></path><line x1="117.7" y1="132.36" x2="117.7" y2="148.78" style="fill:none;stroke:#263238;stroke-miterlimit:10"></line><path d="M123.49,127.3H69.93a3.22,3.22,0,0,1-3.22-3.22h0a3.23,3.23,0,0,1,3.22-3.23h53.56a3.23,3.23,0,0,1,3.23,3.23h0A3.23,3.23,0,0,1,123.49,127.3Z" style="fill:#fff;stroke:#263238;stroke-linecap:round;stroke-linejoin:round"></path><path d="M29.1,330A70.86,70.86,0,1,0,165,330Z" style="fill:#8F4EFF;stroke:#263238;stroke-linecap:round;stroke-linejoin:round"></path><path d="M34,350.05A78.73,78.73,0,0,1,36.6,330H29.1a70.76,70.76,0,0,0,67.92,91C62.21,420.91,34,389.19,34,350.05Z" style="fill:#263238;stroke:#263238;stroke-linecap:round;stroke-linejoin:round"></path><path d="M165,330h-7.51a78.73,78.73,0,0,1,2.61,20.09c0,39.14-28.22,70.86-63,70.86A70.79,70.79,0,0,0,165,330Z" style="fill:#263238;stroke:#263238;stroke-linecap:round;stroke-linejoin:round"></path><ellipse cx="123.39" cy="332.25" rx="21.47" ry="21.79" style="fill:#fff;stroke:#263238;stroke-miterlimit:10"></ellipse><path d="M95,304.14a6.32,6.32,0,1,1-6.32-6.31A6.32,6.32,0,0,1,95,304.14Z" style="fill:#fff;stroke:#263238;stroke-miterlimit:10"></path></g><g id="freepik--flask-2--inject-16"><path d="M160.66,257.69s-13.2,4.66-12.43,9.32,9.33,10.88,11.66,21c.26,1.13.52,2.18.77,3.2V416A13.33,13.33,0,0,0,174,429.37h92.18A13.33,13.33,0,0,0,279.52,416V268.65l3.16-8.34a1.94,1.94,0,0,0-1.81-2.62Z" style="fill:#fff;stroke:#263238;stroke-linecap:round;stroke-linejoin:round"></path><path d="M164.16,331.44v80A12.5,12.5,0,0,0,176.65,424H263a12.5,12.5,0,0,0,12.49-12.5v-80Z" style="fill:#8F4EFF;stroke:#263238;stroke-linecap:round;stroke-linejoin:round"></path><path d="M168.36,310.06v96a16.59,16.59,0,0,0,6.32,12" style="fill:none;stroke:#263238;stroke-miterlimit:10"></path><line x1="168.36" y1="293" x2="168.36" y2="302.48" style="fill:none;stroke:#263238;stroke-miterlimit:10"></line><path d="M275.5,331.44H249.87L196.67,424H263a12.5,12.5,0,0,0,12.49-12.5Z" style="fill:#263238;stroke:#263238;stroke-linecap:round;stroke-linejoin:round"></path><line x1="238.28" y1="365.89" x2="222.07" y2="365.89" style="fill:none;stroke:#263238;stroke-linecap:round;stroke-linejoin:round"></line><line x1="238.28" y1="345.62" x2="222.07" y2="345.62" style="fill:none;stroke:#263238;stroke-linecap:round;stroke-linejoin:round"></line><line x1="238.28" y1="325.34" x2="222.07" y2="325.34" style="fill:none;stroke:#263238;stroke-linecap:round;stroke-linejoin:round"></line><polyline points="238.28 305.07 222.07 305.07 222.07 386.16 238.28 386.16" style="fill:none;stroke:#263238;stroke-linecap:round;stroke-linejoin:round"></polyline><rect x="186.38" y="362.21" width="23.12" height="24.84" rx="4.48" style="fill:#263238"></rect><line x1="274.05" y1="267.04" x2="171.84" y2="267.04" style="fill:none;stroke:#263238;stroke-linecap:round;stroke-linejoin:round"></line></g><g id="freepik--Tube--inject-16"><path d="M333,425.61c-2.88-.62-13-4.38-20.94-8.14a22.82,22.82,0,0,1-5.77-4,18.51,18.51,0,0,1-5.83-13.57v-292H255.93V400.75A18.38,18.38,0,0,1,246.48,417c-.29.16-.59.31-.89.46-8,3.76-18.06,7.52-21,8.14s-5,3.76-5,3.76H338S335.85,426.24,333,425.61Z" style="fill:#fff;stroke:#263238;stroke-miterlimit:10"></path><path d="M303.82,414.67c-.42-.39-.83-.8-1.21-1.21a20,20,0,0,1-5.05-13.57V194.75H259v206a20,20,0,0,1-5.31,13.92Z" style="fill:#8F4EFF;stroke:#263238;stroke-linecap:round;stroke-linejoin:round"></path><path d="M302.61,413.46a20,20,0,0,1-5.05-13.57V194.75H259l33.93,3.78v206.7a15,15,0,0,0,3.52,9.44h7.41C303.4,414.28,303,413.87,302.61,413.46Z" style="fill:#263238;stroke:#263238;stroke-linecap:round;stroke-linejoin:round"></path><polyline points="285.81 123.49 276.37 123.49 276.37 410.89 285.81 410.89" style="fill:none;stroke:#263238;stroke-miterlimit:10"></polyline><line x1="285.81" y1="137.18" x2="276.37" y2="137.18" style="fill:none;stroke:#263238;stroke-miterlimit:10"></line><line x1="285.81" y1="150.87" x2="276.37" y2="150.87" style="fill:none;stroke:#263238;stroke-miterlimit:10"></line><line x1="285.81" y1="164.55" x2="276.37" y2="164.55" style="fill:none;stroke:#263238;stroke-miterlimit:10"></line><line x1="285.81" y1="178.24" x2="276.37" y2="178.24" style="fill:none;stroke:#263238;stroke-miterlimit:10"></line><line x1="285.81" y1="191.92" x2="276.37" y2="191.92" style="fill:none;stroke:#263238;stroke-miterlimit:10"></line><line x1="285.81" y1="205.61" x2="276.37" y2="205.61" style="fill:none;stroke:#263238;stroke-miterlimit:10"></line><line x1="285.81" y1="219.29" x2="276.37" y2="219.29" style="fill:none;stroke:#263238;stroke-miterlimit:10"></line><line x1="285.81" y1="232.98" x2="276.37" y2="232.98" style="fill:none;stroke:#263238;stroke-miterlimit:10"></line><line x1="285.81" y1="246.67" x2="276.37" y2="246.67" style="fill:none;stroke:#263238;stroke-miterlimit:10"></line><line x1="285.81" y1="260.35" x2="276.37" y2="260.35" style="fill:none;stroke:#263238;stroke-miterlimit:10"></line><line x1="285.81" y1="274.04" x2="276.37" y2="274.04" style="fill:none;stroke:#263238;stroke-miterlimit:10"></line><line x1="285.81" y1="287.72" x2="276.37" y2="287.72" style="fill:none;stroke:#263238;stroke-miterlimit:10"></line><line x1="285.81" y1="301.41" x2="276.37" y2="301.41" style="fill:none;stroke:#263238;stroke-miterlimit:10"></line><line x1="285.81" y1="315.09" x2="276.37" y2="315.09" style="fill:none;stroke:#263238;stroke-miterlimit:10"></line><line x1="285.81" y1="328.78" x2="276.37" y2="328.78" style="fill:none;stroke:#263238;stroke-miterlimit:10"></line><line x1="285.81" y1="342.47" x2="276.37" y2="342.47" style="fill:none;stroke:#263238;stroke-miterlimit:10"></line><line x1="285.81" y1="356.15" x2="276.37" y2="356.15" style="fill:none;stroke:#263238;stroke-miterlimit:10"></line><line x1="285.81" y1="369.84" x2="276.37" y2="369.84" style="fill:none;stroke:#263238;stroke-miterlimit:10"></line><line x1="285.81" y1="383.52" x2="276.37" y2="383.52" style="fill:none;stroke:#263238;stroke-miterlimit:10"></line><line x1="285.81" y1="397.21" x2="276.37" y2="397.21" style="fill:none;stroke:#263238;stroke-miterlimit:10"></line><line x1="241.74" y1="422.61" x2="310.35" y2="422.61" style="fill:none;stroke:#263238;stroke-miterlimit:10"></line><path d="M300.44,110.28H256.08a2.83,2.83,0,0,1-2.83-2.83h0a2.82,2.82,0,0,1,2.83-2.83h44.36a2.83,2.83,0,0,1,2.83,2.83h0A2.83,2.83,0,0,1,300.44,110.28Z" style="fill:#fff;stroke:#263238;stroke-miterlimit:10"></path></g></svg>
