<svg xmlns="http://www.w3.org/2000/svg" viewBox="0 0 64 64" role="img" aria-labelledby="logoTitle logoDesc">
  <title id="logoTitle">Лого на Знай повече</title>
  <desc id="logoDesc">Минимален знак с отворена книга и фин искрящ акцент.</desc>
  <defs>
    <linearGradient id="bookGradient" x1="10" y1="18" x2="54" y2="48" gradientUnits="userSpaceOnUse">
      <stop offset="0" stop-color="#2563EB"/>
      <stop offset="1" stop-color="#14B8A6"/>
    </linearGradient>
  </defs>

  <path d="M32 14.5c0-2 1.6-3.6 3.6-3.6 6.5 0 12.1 2.2 16.4 6.2a2.8 2.8 0 0 1 .9 2v20.1c0 1.9-1.8 3.2-3.5 2.5a24.4 24.4 0 0 0-13.8-1.1c-2 .4-3.6-1.1-3.6-3V14.5Z" fill="url(#bookGradient)"/>
  <path d="M32 14.5c0-2-1.6-3.6-3.6-3.6-6.5 0-12.1 2.2-16.4 6.2a2.8 2.8 0 0 0-.9 2v20.1c0 1.9 1.8 3.2 3.5 2.5a24.4 24.4 0 0 1 13.8-1.1c2 .4 3.6-1.1 3.6-3V14.5Z" fill="url(#bookGradient)" opacity="0.9"/>
  <path d="M21.2 23.1c2.4-1.6 4.9-2.5 7.7-2.9 1.1-.2 2.1.7 2.1 1.8s-.7 2-1.8 2.2c-2.2.3-4.2 1-6 2.2-.9.6-2.2.3-2.8-.6-.6-.9-.3-2.1.8-2.7Zm21.6 0c-2.4-1.6-4.9-2.5-7.7-2.9-1.1-.2-2.1.7-2.1 1.8s.7 2 1.8 2.2c2.2.3 4.2 1 6 2.2.9.6 2.2.3 2.8-.6.6-.9.3-2.1-.8-2.7Z" fill="#ffffff" opacity="0.85"/>
  <path d="M32 40.3c5.4-1.7 11.2-1.3 16.4.9 1.4.6 3 .4 4.2-.4v2.8c0 1.1-.9 2-2 2H13.4c-1.1 0-2-.9-2-2v-2.8c1.2.8 2.8 1 4.2.4 5.2-2.2 11-2.5 16.4-.9Z" fill="url(#bookGradient)"/>
</svg>
